<mxfile host="65bd71144e" modified="2020-12-20T15:53:40.010Z" agent="5.0 (Windows NT 10.0; Win64; x64) AppleWebKit/537.36 (KHTML, like Gecko) Code/1.52.1 Chrome/83.0.4103.122 Electron/9.3.5 Safari/537.36" etag="u4UHJnuTK8deul7bPxOH" version="13.10.0" type="embed">
    <diagram id="29kbRAlh68MggSC3cW_3" name="Page-1">
        <mxGraphModel dx="1025" dy="455" grid="1" gridSize="10" guides="1" tooltips="1" connect="1" arrows="1" fold="1" page="1" pageScale="1" pageWidth="827" pageHeight="1169" background="#ffffff" math="0" shadow="0">
            <root>
                <mxCell id="0"/>
                <mxCell id="1" parent="0"/>
                <mxCell id="10" value="" style="edgeStyle=orthogonalEdgeStyle;rounded=0;orthogonalLoop=1;jettySize=auto;html=1;fontColor=#000000;strokeColor=#000000;" parent="1" target="8" edge="1">
                    <mxGeometry relative="1" as="geometry">
                        <mxPoint x="130" y="141" as="sourcePoint"/>
                    </mxGeometry>
                </mxCell>
                <mxCell id="15" value="" style="edgeStyle=none;rounded=0;orthogonalLoop=1;jettySize=auto;html=1;strokeColor=#000000;fontColor=#000000;" parent="1" source="4" target="7" edge="1">
                    <mxGeometry relative="1" as="geometry"/>
                </mxCell>
                <mxCell id="4" value="&lt;font size=&quot;1&quot;&gt;&lt;b style=&quot;font-size: 15px&quot;&gt;F&lt;/b&gt;&lt;/font&gt;" style="ellipse;whiteSpace=wrap;html=1;fillColor=none;strokeColor=#000000;strokeWidth=2;fontColor=#000000;" parent="1" vertex="1">
                    <mxGeometry x="228" y="161" width="40" height="40" as="geometry"/>
                </mxCell>
                <mxCell id="13" style="edgeStyle=none;rounded=0;orthogonalLoop=1;jettySize=auto;html=1;strokeColor=#000000;fontColor=#000000;" parent="1" source="5" target="6" edge="1">
                    <mxGeometry relative="1" as="geometry"/>
                </mxCell>
                <mxCell id="5" value="&lt;font size=&quot;1&quot;&gt;&lt;b style=&quot;font-size: 15px&quot;&gt;C&lt;/b&gt;&lt;/font&gt;" style="ellipse;whiteSpace=wrap;html=1;fillColor=none;strokeColor=#000000;strokeWidth=2;fontColor=#000000;" parent="1" vertex="1">
                    <mxGeometry x="228" y="81" width="40" height="40" as="geometry"/>
                </mxCell>
                <mxCell id="14" value="" style="edgeStyle=none;rounded=0;orthogonalLoop=1;jettySize=auto;html=1;strokeColor=#000000;fontColor=#000000;" parent="1" source="6" target="9" edge="1">
                    <mxGeometry relative="1" as="geometry"/>
                </mxCell>
                <mxCell id="6" value="&lt;font size=&quot;1&quot;&gt;&lt;b style=&quot;font-size: 15px&quot;&gt;D&lt;/b&gt;&lt;/font&gt;" style="ellipse;whiteSpace=wrap;html=1;fillColor=none;strokeColor=#000000;strokeWidth=2;fontColor=#000000;" parent="1" vertex="1">
                    <mxGeometry x="318" y="81" width="40" height="40" as="geometry"/>
                </mxCell>
                <mxCell id="7" value="&lt;font size=&quot;1&quot;&gt;&lt;b style=&quot;font-size: 15px&quot;&gt;G&lt;/b&gt;&lt;/font&gt;" style="ellipse;whiteSpace=wrap;html=1;fillColor=none;strokeColor=#000000;strokeWidth=2;fontColor=#000000;" parent="1" vertex="1">
                    <mxGeometry x="318" y="161" width="40" height="40" as="geometry"/>
                </mxCell>
                <mxCell id="11" style="rounded=0;orthogonalLoop=1;jettySize=auto;html=1;entryX=0;entryY=0.5;entryDx=0;entryDy=0;strokeColor=#000000;fontColor=#000000;" parent="1" source="8" target="5" edge="1">
                    <mxGeometry relative="1" as="geometry"/>
                </mxCell>
                <mxCell id="12" style="edgeStyle=none;rounded=0;orthogonalLoop=1;jettySize=auto;html=1;strokeColor=#000000;fontColor=#000000;entryX=0;entryY=0.5;entryDx=0;entryDy=0;" parent="1" source="8" target="4" edge="1">
                    <mxGeometry relative="1" as="geometry">
                        <mxPoint x="220" y="181" as="targetPoint"/>
                    </mxGeometry>
                </mxCell>
                <mxCell id="8" value="&lt;span style=&quot;font-size: 15px&quot;&gt;&lt;b&gt;B&lt;/b&gt;&lt;/span&gt;" style="ellipse;whiteSpace=wrap;html=1;fillColor=none;strokeColor=#000000;strokeWidth=2;fontColor=#000000;" parent="1" vertex="1">
                    <mxGeometry x="160" y="121" width="40" height="40" as="geometry"/>
                </mxCell>
                <mxCell id="9" value="&lt;font size=&quot;1&quot;&gt;&lt;b style=&quot;font-size: 15px&quot;&gt;E&lt;/b&gt;&lt;/font&gt;" style="ellipse;whiteSpace=wrap;html=1;fillColor=none;strokeColor=#000000;strokeWidth=2;fontColor=#000000;" parent="1" vertex="1">
                    <mxGeometry x="414" y="81" width="40" height="40" as="geometry"/>
                </mxCell>
                <mxCell id="17" value="&lt;font size=&quot;1&quot;&gt;&lt;b style=&quot;font-size: 15px&quot;&gt;A&lt;/b&gt;&lt;/font&gt;" style="ellipse;whiteSpace=wrap;html=1;fillColor=none;strokeColor=#000000;strokeWidth=2;fontColor=#000000;" parent="1" vertex="1">
                    <mxGeometry x="90" y="121" width="40" height="40" as="geometry"/>
                </mxCell>
                <mxCell id="18" value="" style="edgeStyle=orthogonalEdgeStyle;rounded=0;orthogonalLoop=1;jettySize=auto;html=1;fontColor=#000000;strokeColor=#000000;" parent="1" target="29" edge="1">
                    <mxGeometry relative="1" as="geometry">
                        <mxPoint x="130" y="141" as="sourcePoint"/>
                    </mxGeometry>
                </mxCell>
                <mxCell id="20" value="" style="edgeStyle=none;rounded=0;orthogonalLoop=1;jettySize=auto;html=1;strokeColor=#000000;fontColor=#000000;" parent="1" source="21" target="26" edge="1">
                    <mxGeometry relative="1" as="geometry"/>
                </mxCell>
                <mxCell id="21" value="&lt;font size=&quot;1&quot;&gt;&lt;b style=&quot;font-size: 15px&quot;&gt;F&lt;/b&gt;&lt;/font&gt;" style="ellipse;whiteSpace=wrap;html=1;fillColor=none;strokeColor=#000000;strokeWidth=2;fontColor=#000000;" parent="1" vertex="1">
                    <mxGeometry x="228" y="161" width="40" height="40" as="geometry"/>
                </mxCell>
                <mxCell id="22" style="edgeStyle=none;rounded=0;orthogonalLoop=1;jettySize=auto;html=1;strokeColor=#000000;fontColor=#000000;" parent="1" source="23" target="25" edge="1">
                    <mxGeometry relative="1" as="geometry"/>
                </mxCell>
                <mxCell id="23" value="&lt;font size=&quot;1&quot;&gt;&lt;b style=&quot;font-size: 15px&quot;&gt;C&lt;/b&gt;&lt;/font&gt;" style="ellipse;whiteSpace=wrap;html=1;fillColor=none;strokeColor=#000000;strokeWidth=2;fontColor=#000000;" parent="1" vertex="1">
                    <mxGeometry x="228" y="81" width="40" height="40" as="geometry"/>
                </mxCell>
                <mxCell id="24" value="" style="edgeStyle=none;rounded=0;orthogonalLoop=1;jettySize=auto;html=1;strokeColor=#000000;fontColor=#000000;" parent="1" source="25" target="30" edge="1">
                    <mxGeometry relative="1" as="geometry"/>
                </mxCell>
                <mxCell id="25" value="&lt;font size=&quot;1&quot;&gt;&lt;b style=&quot;font-size: 15px&quot;&gt;D&lt;/b&gt;&lt;/font&gt;" style="ellipse;whiteSpace=wrap;html=1;fillColor=none;strokeColor=#000000;strokeWidth=2;fontColor=#000000;" parent="1" vertex="1">
                    <mxGeometry x="318" y="81" width="40" height="40" as="geometry"/>
                </mxCell>
                <mxCell id="26" value="&lt;font size=&quot;1&quot;&gt;&lt;b style=&quot;font-size: 15px&quot;&gt;G&lt;/b&gt;&lt;/font&gt;" style="ellipse;whiteSpace=wrap;html=1;fillColor=none;strokeColor=#000000;strokeWidth=2;fontColor=#000000;" parent="1" vertex="1">
                    <mxGeometry x="318" y="161" width="40" height="40" as="geometry"/>
                </mxCell>
                <mxCell id="27" style="rounded=0;orthogonalLoop=1;jettySize=auto;html=1;entryX=0;entryY=0.5;entryDx=0;entryDy=0;strokeColor=#000000;fontColor=#000000;" parent="1" source="29" target="23" edge="1">
                    <mxGeometry relative="1" as="geometry"/>
                </mxCell>
                <mxCell id="28" style="edgeStyle=none;rounded=0;orthogonalLoop=1;jettySize=auto;html=1;strokeColor=#000000;fontColor=#000000;entryX=0;entryY=0.5;entryDx=0;entryDy=0;" parent="1" source="29" target="21" edge="1">
                    <mxGeometry relative="1" as="geometry">
                        <mxPoint x="220" y="181" as="targetPoint"/>
                    </mxGeometry>
                </mxCell>
                <mxCell id="29" value="&lt;span style=&quot;font-size: 15px&quot;&gt;&lt;b&gt;B&lt;/b&gt;&lt;/span&gt;" style="ellipse;whiteSpace=wrap;html=1;fillColor=none;strokeColor=#000000;strokeWidth=2;fontColor=#000000;" parent="1" vertex="1">
                    <mxGeometry x="160" y="121" width="40" height="40" as="geometry"/>
                </mxCell>
                <mxCell id="35" style="edgeStyle=orthogonalEdgeStyle;rounded=0;orthogonalLoop=1;jettySize=auto;html=1;exitX=1;exitY=0.5;exitDx=0;exitDy=0;entryX=0;entryY=0.5;entryDx=0;entryDy=0;strokeColor=#000000;" edge="1" parent="1" source="30" target="34">
                    <mxGeometry relative="1" as="geometry"/>
                </mxCell>
                <mxCell id="30" value="&lt;font size=&quot;1&quot;&gt;&lt;b style=&quot;font-size: 15px&quot;&gt;E&lt;/b&gt;&lt;/font&gt;" style="ellipse;whiteSpace=wrap;html=1;fillColor=none;strokeColor=#000000;strokeWidth=2;fontColor=#000000;" parent="1" vertex="1">
                    <mxGeometry x="414" y="81" width="40" height="40" as="geometry"/>
                </mxCell>
                <mxCell id="31" value="&lt;font color=&quot;#000000&quot; style=&quot;font-size: 14px;&quot;&gt;master&lt;/font&gt;" style="text;html=1;align=center;verticalAlign=middle;resizable=0;points=[];autosize=1;fontSize=14;fontStyle=1" parent="1" vertex="1">
                    <mxGeometry x="670" y="91" width="60" height="20" as="geometry"/>
                </mxCell>
                <mxCell id="32" value="&lt;font color=&quot;#000000&quot; style=&quot;font-size: 14px&quot;&gt;DTS&lt;/font&gt;" style="text;html=1;align=center;verticalAlign=middle;resizable=0;points=[];autosize=1;fontSize=14;fontStyle=1" parent="1" vertex="1">
                    <mxGeometry x="374" y="171" width="40" height="20" as="geometry"/>
                </mxCell>
                <mxCell id="33" value="&lt;font size=&quot;1&quot;&gt;&lt;b style=&quot;font-size: 15px&quot;&gt;G&quot;&lt;/b&gt;&lt;/font&gt;" style="ellipse;whiteSpace=wrap;html=1;fillColor=none;strokeColor=#000000;strokeWidth=2;fontColor=#000000;" vertex="1" parent="1">
                    <mxGeometry x="580" y="81" width="40" height="40" as="geometry"/>
                </mxCell>
                <mxCell id="36" value="" style="edgeStyle=orthogonalEdgeStyle;rounded=0;orthogonalLoop=1;jettySize=auto;html=1;strokeColor=#000000;" edge="1" parent="1" source="34" target="33">
                    <mxGeometry relative="1" as="geometry"/>
                </mxCell>
                <mxCell id="34" value="&lt;font size=&quot;1&quot;&gt;&lt;b style=&quot;font-size: 15px&quot;&gt;F&quot;&lt;/b&gt;&lt;/font&gt;" style="ellipse;whiteSpace=wrap;html=1;fillColor=none;strokeColor=#000000;strokeWidth=2;fontColor=#000000;" vertex="1" parent="1">
                    <mxGeometry x="500" y="81" width="40" height="40" as="geometry"/>
                </mxCell>
            </root>
        </mxGraphModel>
    </diagram>
</mxfile>